<svg width="50" height="50" viewBox="0 0 50 50" fill="none" xmlns="http://www.w3.org/2000/svg">
<path d="M18.9729 11.3501C20.2187 7.70425 25.2562 7.59383 26.7333 11.0188L26.8583 11.3522L28.5396 16.2688C28.9249 17.3964 29.5475 18.4282 30.3655 19.2947C31.1834 20.1612 32.1777 20.8422 33.2812 21.2917L33.7333 21.4605L38.65 23.1397C42.2958 24.3855 42.4062 29.423 38.9833 30.9001L38.65 31.0251L33.7333 32.7063C32.6054 33.0914 31.5731 33.7139 30.7063 34.5319C29.8394 35.3498 29.1581 36.3443 28.7083 37.448L28.5396 37.898L26.8604 42.8167C25.6146 46.4626 20.5771 46.573 19.1021 43.1501L18.9729 42.8167L17.2937 37.9001C16.9087 36.7721 16.2862 35.7399 15.4682 34.873C14.6502 34.0062 13.6558 33.3249 12.5521 32.8751L12.1021 32.7063L7.18539 31.0272C3.53747 29.7813 3.42706 24.7438 6.85206 23.2688L7.18539 23.1397L12.1021 21.4605C13.2296 21.0752 14.2615 20.4526 15.1279 19.6346C15.9944 18.8166 16.6754 17.8224 17.125 16.7188L17.2937 16.2688L18.9729 11.3501ZM22.9166 12.6959L21.2375 17.6126C20.6508 19.332 19.6964 20.9028 18.4407 22.2157C17.185 23.5286 15.6582 24.552 13.9666 25.2147L13.4458 25.4042L8.52914 27.0834L13.4458 28.7626C15.1652 29.3493 16.736 30.3037 18.0489 31.5594C19.3618 32.8151 20.3852 34.3419 21.0479 36.0334L21.2375 36.5542L22.9166 41.4709L24.5958 36.5542C25.1825 34.8349 26.1369 33.264 27.3926 31.9511C28.6483 30.6382 30.1751 29.6148 31.8666 28.9522L32.3875 28.7647L37.3041 27.0834L32.3875 25.4042C30.6681 24.8176 29.0973 23.8631 27.7844 22.6074C26.4715 21.3518 25.448 19.825 24.7854 18.1334L24.5979 17.6126L22.9166 12.6959ZM39.5833 4.16675C39.9731 4.16675 40.355 4.27608 40.6857 4.48231C41.0164 4.68855 41.2826 4.98342 41.4541 5.33341L41.5541 5.57717L42.2833 7.71467L44.4229 8.44383C44.8135 8.57653 45.1559 8.8222 45.4067 9.1497C45.6575 9.4772 45.8055 9.87179 45.8318 10.2835C45.8581 10.6951 45.7617 11.1054 45.5546 11.4621C45.3475 11.8189 45.0392 12.1062 44.6687 12.2876L44.4229 12.3876L42.2854 13.1167L41.5562 15.2563C41.4233 15.6468 41.1774 15.989 40.8498 16.2396C40.5222 16.4903 40.1275 16.638 39.7159 16.6641C39.3042 16.6902 38.8941 16.5935 38.5374 16.3863C38.1808 16.1791 37.8937 15.8706 37.7125 15.5001L37.6125 15.2563L36.8833 13.1188L34.7437 12.3897C34.3531 12.257 34.0107 12.0113 33.7599 11.6838C33.5091 11.3563 33.3611 10.9617 33.3348 10.55C33.3085 10.1384 33.405 9.72814 33.612 9.37136C33.8191 9.01457 34.1274 8.72729 34.4979 8.54592L34.7437 8.44591L36.8812 7.71675L37.6104 5.57717C37.7509 5.16555 38.0167 4.80822 38.3705 4.55529C38.7243 4.30235 39.1484 4.16649 39.5833 4.16675Z" fill="#6563FF"/>
</svg>
