<svg xmlns="http://www.w3.org/2000/svg" xmlns:xlink="http://www.w3.org/1999/xlink" width="500" zoomAndPan="magnify" viewBox="0 0 375 374.999991" height="500" preserveAspectRatio="xMidYMid meet" version="1.0"><defs><filter x="0%" y="0%" width="100%" height="100%" id="81ca6d77f5"><feColorMatrix values="0 0 0 0 1 0 0 0 0 1 0 0 0 0 1 0 0 0 1 0" color-interpolation-filters="sRGB"/></filter><mask id="841f680e65"><g filter="url(#81ca6d77f5)"><rect x="-37.5" width="450" fill="#000000" y="-37.499999" height="449.999989" fill-opacity="0.88"/></g></mask><clipPath id="4f799742f7"><path d="M 1.164062 0.847656 L 251.382812 0.847656 L 251.382812 251.347656 L 1.164062 251.347656 Z M 1.164062 0.847656 " clip-rule="nonzero"/></clipPath><clipPath id="7102f2a507"><rect x="0" width="252" y="0" height="252"/></clipPath><mask id="29f3f3e59e"><g filter="url(#81ca6d77f5)"><rect x="-37.5" width="450" fill="#000000" y="-37.499999" height="449.999989" fill-opacity="0.88"/></g></mask><clipPath id="ef0a41537d"><path d="M 0.328125 0.925781 L 259 0.925781 L 259 259.675781 L 0.328125 259.675781 Z M 0.328125 0.925781 " clip-rule="nonzero"/></clipPath><clipPath id="61f39513e3"><rect x="0" width="260" y="0" height="260"/></clipPath></defs><g mask="url(#841f680e65)"><g transform="matrix(1, 0, 0, 1, 28, 97)"><g clip-path="url(#7102f2a507)"><g clip-path="url(#4f799742f7)"><path fill="#090041" d="M 126.273438 251.0625 C 159.691406 251.0625 191.109375 238.050781 214.738281 214.421875 C 238.367188 190.789062 251.382812 159.375 251.382812 125.957031 C 251.382812 92.539062 238.367188 61.121094 214.738281 37.488281 C 191.109375 13.859375 159.691406 0.847656 126.273438 0.847656 C 92.855469 0.847656 61.4375 13.859375 37.808594 37.488281 C 14.179688 61.121094 1.164062 92.539062 1.164062 125.957031 C 1.164062 144.566406 6.382812 161.828125 6.625 162.613281 C 8.707031 169.433594 11.394531 176.109375 14.613281 182.484375 L 2.355469 244.46875 C 2.113281 245.691406 2.488281 246.957031 3.363281 247.847656 C 4.234375 248.738281 5.488281 249.140625 6.714844 248.925781 L 70.195312 237.796875 C 76.910156 241.179688 83.960938 243.957031 91.164062 246.066406 C 91.871094 246.269531 108.535156 251.0625 126.273438 251.0625 Z M 126.273438 251.0625 " fill-opacity="1" fill-rule="nonzero"/></g></g></g></g><g mask="url(#29f3f3e59e)"><g transform="matrix(1, 0, 0, 1, 87, 26)"><g clip-path="url(#61f39513e3)"><g clip-path="url(#ef0a41537d)"><path fill="#8feef6" d="M 129.578125 259.429688 C 95.054688 259.429688 62.597656 245.984375 38.183594 221.570312 C 13.773438 197.160156 0.328125 164.703125 0.328125 130.179688 C 0.328125 95.652344 13.773438 63.195312 38.183594 38.785156 C 62.597656 14.371094 95.054688 0.925781 129.578125 0.925781 C 164.101562 0.925781 196.5625 14.371094 220.972656 38.785156 C 245.386719 63.195312 258.832031 95.652344 258.832031 130.179688 C 258.832031 149.40625 253.441406 167.238281 253.191406 168.050781 C 251.039062 175.09375 248.265625 181.992188 244.933594 188.578125 L 257.601562 252.617188 C 257.851562 253.878906 257.460938 255.183594 256.5625 256.105469 C 255.660156 257.023438 254.363281 257.441406 253.097656 257.21875 L 187.511719 245.722656 C 180.574219 249.214844 173.292969 252.085938 165.851562 254.265625 C 165.121094 254.476562 147.902344 259.429688 129.578125 259.429688 Z M 129.578125 259.429688 " fill-opacity="1" fill-rule="nonzero"/></g></g></g></g></svg>