<svg width="32" height="32" viewBox="0 0 32 32" fill="none" xmlns="http://www.w3.org/2000/svg">
<path fill-rule="evenodd" clip-rule="evenodd" d="M5.33334 11.6887C5.33334 8.18432 8.18432 5.33334 11.6887 5.33334H20.3114C23.8156 5.33334 26.6666 8.18432 26.6667 11.6887V20.3114C26.6667 23.8157 23.8157 26.6667 20.3114 26.6667H11.6887C8.18432 26.6667 5.33334 23.8157 5.33334 20.3114V11.6887ZM7.47763 11.6865V20.3092C7.47763 22.6339 9.36217 24.5184 11.6868 24.5184H20.3095C22.6342 24.5184 24.5187 22.6339 24.5187 20.3092V11.6865C24.5187 9.36184 22.6342 7.47735 20.3095 7.47735H11.6868C9.36217 7.47735 7.47763 9.36184 7.47763 11.6865ZM16.211 21.7286C13.1687 21.7286 10.6935 19.2534 10.6935 16.211C10.6935 13.1687 13.1687 10.6935 16.211 10.6935C19.2534 10.6935 21.7286 13.1686 21.7286 16.211C21.7286 19.2534 19.2534 21.7286 16.211 21.7286ZM16.2091 12.8375C14.3471 12.8375 12.8377 14.347 12.8377 16.209C12.8377 18.071 14.3471 19.5803 16.2091 19.5803C18.071 19.5803 19.5805 18.0709 19.5805 16.209C19.5805 14.347 18.0711 12.8375 16.2091 12.8375ZM20.3416 10.9436C20.3416 11.6739 20.9335 12.2658 21.6636 12.2658C22.3939 12.2658 22.9858 11.6739 22.9858 10.9436C22.9858 10.2135 22.3939 9.62155 21.6636 9.62155C20.9335 9.62155 20.3416 10.2135 20.3416 10.9436Z" fill="white"/>
</svg>
