<svg width="32" height="32" viewBox="0 0 32 32" fill="none" xmlns="http://www.w3.org/2000/svg">
<path fill-rule="evenodd" clip-rule="evenodd" d="M26.6665 25.7204H22.0932V18.3611C22.0932 16.5118 21.4334 15.2497 19.7763 15.2497C18.5138 15.2497 17.7629 16.1008 17.4311 16.924C17.3098 17.2164 17.2799 17.6247 17.2799 18.0377V25.7204H12.7047C12.7047 25.7204 12.7663 13.2543 12.7047 11.9638H17.2799V13.9137C17.888 12.978 18.9722 11.6404 21.402 11.6404C24.4112 11.6404 26.6665 13.6075 26.6665 17.831V25.7204ZM7.88967 10.0861H7.86135C6.32595 10.0861 5.33322 9.03063 5.33322 7.70954C5.33322 6.36052 6.35618 5.33334 7.92182 5.33334C9.48554 5.33334 10.448 6.36052 10.4779 7.70954C10.4779 9.03063 9.48554 10.0861 7.88967 10.0861ZM5.60511 25.7203H10.1769V11.9637H5.60511V25.7203Z" fill="white"/>
</svg>
